<svg xmlns="http://www.w3.org/2000/svg" width="500" height="500" viewBox="0 0 500 500" version="1.1"><path d="M 180.750 86.750 C 205.638 86.899, 246.363 86.899, 271.250 86.750 C 296.138 86.601, 275.775 86.479, 226 86.479 C 176.225 86.479, 155.863 86.601, 180.750 86.750 M 119 91.500 C 117.625 92.286, 116.950 92.929, 117.500 92.929 C 118.050 92.929, 119.625 92.286, 121 91.500 C 122.375 90.714, 123.050 90.071, 122.500 90.071 C 121.950 90.071, 120.375 90.714, 119 91.500 M 359 102.364 C 359 102.639, 360.350 103.825, 362 105 C 363.650 106.175, 365 106.911, 365 106.636 C 365 106.361, 363.650 105.175, 362 104 C 360.350 102.825, 359 102.089, 359 102.364 M 376 119 C 377.742 121.200, 379.393 123, 379.668 123 C 379.943 123, 378.742 121.200, 377 119 C 375.258 116.800, 373.607 115, 373.332 115 C 373.057 115, 374.258 116.800, 376 119 M 92.365 138.500 C 92.368 144, 92.536 146.122, 92.738 143.216 C 92.941 140.311, 92.939 135.811, 92.734 133.216 C 92.528 130.622, 92.363 133, 92.365 138.500 M 394.272 171 C 394.272 173.475, 394.467 174.488, 394.706 173.250 C 394.944 172.012, 394.944 169.988, 394.706 168.750 C 394.467 167.512, 394.272 168.525, 394.272 171 M 114 182.911 C 115.375 184.035, 116.950 184.959, 117.500 184.962 C 118.570 184.970, 116.762 183.585, 113.500 181.899 C 112.172 181.213, 112.339 181.552, 114 182.911 M 188.241 240.750 L 188.500 292.500 239 292.500 L 289.500 292.500 289.516 249.750 L 289.533 207 289.256 249.500 L 288.979 292 238.989 292 L 189 292 189 241.009 L 189 190.018 239.750 189.750 L 290.500 189.481 239.241 189.241 L 187.982 189 188.241 240.750 M 142.500 190.689 C 159.681 191.406, 177.003 191.437, 177.002 190.750 C 177.001 190.338, 167.662 190.089, 156.250 190.199 C 144.838 190.308, 138.650 190.529, 142.500 190.689 M 138.500 215.588 L 135.500 218.165 138.750 216.015 C 140.537 214.832, 142 213.669, 142 213.432 C 142 212.683, 141.577 212.944, 138.500 215.588 M 117.437 232.250 L 114.500 235.500 117.995 232.500 C 119.917 230.850, 121.680 229.387, 121.912 229.250 C 122.144 229.113, 121.893 229, 121.354 229 C 120.815 229, 119.052 230.463, 117.437 232.250 M 82.232 301 C 82.232 302.925, 82.438 303.712, 82.689 302.750 C 82.941 301.788, 82.941 300.212, 82.689 299.250 C 82.438 298.288, 82.232 299.075, 82.232 301 M 394.252 315.500 C 394.263 317.700, 394.468 318.482, 394.707 317.238 C 394.946 315.994, 394.937 314.194, 394.687 313.238 C 394.437 312.282, 394.241 313.300, 394.252 315.500 M 82.232 320 C 82.232 321.925, 82.438 322.712, 82.689 321.750 C 82.941 320.788, 82.941 319.212, 82.689 318.250 C 82.438 317.288, 82.232 318.075, 82.232 320 M 90 348.383 C 90 349.456, 92.975 355, 93.551 355 C 93.826 355, 93.308 353.538, 92.399 351.750 C 90.542 348.100, 90 347.339, 90 348.383 M 100 364.621 C 100 365.146, 102.362 367.808, 105.250 370.538 L 110.500 375.500 105.500 370.021 C 102.750 367.008, 100.388 364.345, 100.250 364.104 C 100.112 363.864, 100 364.096, 100 364.621 M 369.015 371.954 C 367.648 373.004, 366.784 374.117, 367.094 374.428 C 367.405 374.738, 368.714 373.869, 370.004 372.496 C 372.792 369.528, 372.431 369.329, 369.015 371.954 M 111.359 376.772 C 112.150 378.052, 118 382.381, 118 381.687 C 118 381.440, 116.348 379.977, 114.329 378.437 C 112.310 376.897, 110.973 376.148, 111.359 376.772 M 145 394.986 C 145.825 395.527, 147.588 395.976, 148.917 395.985 C 152.126 396.005, 151.313 395.436, 147 394.645 C 144.538 394.193, 143.945 394.294, 145 394.986 M 328 395 C 325.940 395.660, 325.852 395.816, 327.500 395.885 C 328.600 395.931, 330.175 395.533, 331 395 C 332.752 393.868, 331.536 393.868, 328 395 M 160.776 397.733 C 163.128 397.945, 166.728 397.942, 168.776 397.727 C 170.824 397.512, 168.900 397.339, 164.500 397.343 C 160.100 397.346, 158.424 397.522, 160.776 397.733 M 207.250 397.749 C 223.062 397.904, 248.937 397.904, 264.750 397.749 C 280.562 397.595, 267.625 397.468, 236 397.468 C 204.375 397.468, 191.437 397.595, 207.250 397.749 M 310.768 397.725 C 312.565 397.947, 315.265 397.943, 316.768 397.715 C 318.271 397.486, 316.800 397.304, 313.500 397.310 C 310.200 397.315, 308.971 397.502, 310.768 397.725" stroke="none" fill="#5d8be2" fill-rule="evenodd"/><path d="M 131.124 88.002 C 126.111 89.186, 116 93.351, 116 94.233 C 116 94.655, 115.419 95, 114.710 95 C 111.909 95, 100.917 107.096, 98.353 113 C 97.756 114.375, 96.765 116.625, 96.152 118 C 94.051 122.706, 93.049 129.503, 93.024 139.212 C 92.973 159.812, 102.353 176.644, 118.210 184.402 C 128.219 189.299, 132.765 189.975, 155.750 189.988 C 167.438 189.995, 177 190.378, 177 190.839 C 177 191.301, 175.988 192.198, 174.750 192.832 C 171.877 194.305, 171.789 194.361, 151.180 207.894 C 117.157 230.237, 102.550 244.588, 92.548 265.500 C 81.484 288.632, 79.283 315.737, 86.662 337.986 C 89.512 346.582, 95.863 359.206, 99.393 363.292 C 112.864 378.887, 124.594 387.459, 139.157 392.349 C 153.228 397.075, 152.556 397.042, 238.410 397.100 L 319.500 397.154 329.495 394.517 C 338.274 392.200, 343.065 390.232, 353.009 384.856 C 369.568 375.906, 387.636 351.592, 391.545 333 C 391.834 331.625, 392.618 328.025, 393.286 325 C 394.176 320.965, 394.500 300.184, 394.500 247 C 394.500 173.860, 394.103 158.974, 392.008 153.500 C 391.376 151.850, 390.896 150.387, 390.941 150.248 C 391.323 149.073, 389.549 142, 388.872 142 C 388.392 142, 387.994 141.213, 387.986 140.250 C 387.963 137.416, 380.466 124.477, 374.552 117.065 C 370.094 111.478, 358.346 101, 356.539 101 C 356.298 101, 354.165 99.713, 351.800 98.140 C 346.414 94.557, 331.567 89.339, 323 88.017 C 315.223 86.818, 136.199 86.804, 131.124 88.002 M 188.241 240.750 L 188.500 292.500 239 292.500 L 289.500 292.500 289.759 240.750 L 290.018 189 239 189 L 187.982 189 188.241 240.750" stroke="none" fill="#1c63eb" fill-rule="evenodd"/></svg>